            WARNING!!!! English audio track is separate. You have to load it into your player if you want to watch this movie in english. If you don't know how to do it - ask Google!!!!

Plot: With the help of a German bounty hunter, a freed slave sets out to rescue his wife from a brutal Mississippi plantation owner.

MediaInfo 0.7.62:
General
Complete name                            : C:UsersIvanDesktop╨ö╨╢╨░╨╜╨│╨╛ ╨╛╤ü╨▓╨╛╨▒╨╛╨╢╨┤╨╡╨╜╨╜╤ï╨╣╨ö╨╢╨░╨╜╨│╨╛ ╨╛╤ü╨▓╨╛╨▒╨╛╨╢╨┤╨╡╨╜╨╜╤ï╨╣.avi
Format                                   : AVI
Format/Info                              : Audio Video Interleave
File size                                : 1.90 GiB
Duration                                 : 2h 45mn
Overall bit rate                         : 1 644 Kbps
Writing application                      : VirtualDubMod 1.5.10.2 (build 2540/release)
Writing library                          : VirtualDub build 32839/release

Video
ID                                       : 0
Format                                   : MPEG-4 Visual
Format profile                           : Advanced Simple@L5
Format settings, BVOP                    : 2
Format settings, QPel                    : Yes
Format settings, GMC                     : No warppoints
Format settings, Matrix                  : Default (H.263)
Muxing mode                              : Packed bitstream
Codec ID                                 : XVID
Codec ID/Hint                            : XviD
Duration                                 : 2h 45mn
Bit rate                                 : 1 506 Kbps
Width                                    : 720 pixels
Height                                   : 304 pixels
Display aspect ratio                     : 2.35:1
Frame rate                               : 23.976 fps
Color space                              : YUV
Chroma subsampling                       : 4:2:0
Bit depth                                : 8 bits
Scan type                                : Progressive
Compression mode                         : Lossy
Bits/(Pixel*Frame)                       : 0.287
Stream size                              : 1.74 GiB (92%)
Writing library                          : XviD 1.2.1 (UTC 2008-12-04)

Audio
ID                                       : 1
Format                                   : MPEG Audio
Format version                           : Version 1
Format profile                           : Layer 3
Codec ID                                 : 55
Codec ID/Hint                            : MP3
Duration                                 : 2h 45mn
Bit rate mode                            : Constant
Bit rate                                 : 128 Kbps
Channel(s)                               : 2 channels
Sampling rate                            : 44.1 KHz
Compression mode                         : Lossy
Stream size                              : 151 MiB (8%)
Alignment                                : Split accross interleaves
Interleave, duration                     : 42 ms (1.00 video frame)
Interleave, preload duration             : 500 ms

